name Walk3.mot
datacolumns 19
datarows 20
range 2.34000000 2.43500000
endheader

                time	   L_ground_force_vx	   L_ground_force_vy	   L_ground_force_vz	   L_ground_force_px	   L_ground_force_py	   L_ground_force_pz	   R_ground_force_vx	   R_ground_force_vy	   R_ground_force_vz	   R_ground_force_px	   R_ground_force_py	   R_ground_force_pz	   L_ground_torque_x	   L_ground_torque_y	   L_ground_torque_z	   R_ground_torque_x	   R_ground_torque_y	   R_ground_torque_z	
          2.34000000	         -0.00000000	         -0.00000000	          0.00000000	          0.00000000	          0.00000000	          0.00000000	         16.29100832	         51.95191166	          3.93069423	          0.20144194	          0.00000000	          0.03952908	          0.00000000	         -0.00000000	          0.00000000	          0.00000000	          0.01480160	          0.00000000	
          2.34500000	         -0.00000000	         -0.00000000	         -0.00000000	          0.00000000	          0.00000000	          0.00000000	         11.16433547	         34.94430373	          2.66015462	          0.17433137	          0.00000000	          0.03434750	          0.00000000	         -0.00000000	          0.00000000	          0.00000000	          0.01972662	          0.00000000	
          2.35000000	          0.00000000	         -0.00000000	         -0.00000000	          0.00000000	          0.00000000	          0.00000000	          7.01144094	         21.34617723	          1.62973488	          0.14435932	          0.00000000	          0.02854897	          0.00000000	         -0.00000000	          0.00000000	          0.00000000	          0.02145533	          0.00000000	
          2.35500000	          0.00000000	          0.00000000	         -0.00000000	          0.00000000	          0.00000000	          0.00000000	          3.79497558	         10.94285654	          0.83960832	          0.11384360	          0.00000000	          0.02259652	          0.00000000	         -0.00000000	          0.00000000	          0.00000000	          0.02087445	          0.00000000	
          2.36000000	          0.00000000	          0.00000000	         -0.00000000	          0.00000000	          0.00000000	          0.00000000	          1.43218320	          3.40596608	          0.26651209	          0.08527099	          0.00000000	          0.01699226	          0.00000000	         -0.00000000	          0.00000000	          0.00000000	          0.01885104	          0.00000000	
          2.36500000	          0.00000000	          0.00000000	         -0.00000000	          0.00000000	          0.00000000	          0.00000000	         -0.19629816	         -1.69666650	         -0.12208130	          0.06020402	          0.00000000	          0.01205447	          0.00000000	         -0.00000000	          0.00000000	          0.00000000	          0.01606257	          0.00000000	
          2.37000000	          0.00000000	          0.00000000	         -0.00000000	          0.00000000	          0.00000000	          0.00000000	         -1.22508690	         -4.83470012	         -0.36162356	          0.03936765	          0.00000000	          0.00793460	          0.00000000	         -0.00000000	          0.00000000	          0.00000000	          0.01300402	          0.00000000	
          2.37500000	          0.00000000	          0.00000000	         -0.00000000	         -0.00000000	          0.00000000	         -0.00000000	         -1.78793963	         -6.46469397	         -0.48663732	          0.02289218	          0.00000000	          0.00466508	          0.00000000	         -0.00000000	          0.00000000	          0.00000000	          0.01001418	          0.00000000	
          2.38000000	          0.00000000	          0.00000000	         -0.00000000	         -0.00000000	          0.00000000	         -0.00000000	         -2.00748177	         -6.99869832	         -0.52831909	          0.01051629	          0.00000000	          0.00219944	          0.00000000	         -0.00000000	          0.00000000	          0.00000000	          0.00730485	          0.00000000	
          2.38500000	          0.00000000	          0.00000000	         -0.00000000	         -0.00000000	          0.00000000	         -0.00000000	         -1.98950236	         -6.78763256	         -0.51326516	          0.00174816	          0.00000000	          0.00044433	          0.00000000	         -0.00000000	          0.00000000	          0.00000000	          0.00498968	          0.00000000	
          2.39000000	          0.00000000	          0.00000000	         -0.00000000	         -0.00000000	          0.00000000	         -0.00000000	         -1.82062693	         -6.11546050	         -0.46301829	         -0.00401293	          0.00000000	         -0.00071633	          0.00000000	         -0.00000000	          0.00000000	          0.00000000	          0.00311039	          0.00000000	
          2.39500000	          0.00000000	          0.00000000	         -0.00000000	         -0.00000000	          0.00000000	         -0.00000000	         -1.56834081	         -5.20075061	         -0.39417680	         -0.00739003	          0.00000000	         -0.00140399	          0.00000000	         -0.00000000	          0.00000000	          0.00000000	          0.00165924	          0.00000000	
          2.40000000	          0.00000000	          0.00000000	         -0.00000000	         -0.00000000	          0.00000000	         -0.00000000	         -1.28251782	         -4.20284838	         -0.31885547	         -0.00897124	          0.00000000	         -0.00173393	          0.00000000	          0.00000000	          0.00000000	          0.00000000	          0.00059742	          0.00000000	
          2.40500000	          0.00000000	          0.00000000	         -0.00000000	         -0.00000000	          0.00000000	         -0.00000000	         -0.99779342	         -3.23051852	         -0.24533574	         -0.00927572	          0.00000000	         -0.00180838	          0.00000000	          0.00000000	          0.00000000	          0.00000000	         -0.00013076	          0.00000000	
          2.41000000	          0.00000000	          0.00000000	         -0.00000000	         -0.00000000	          0.00000000	         -0.00000000	         -0.73629178	         -2.35148727	         -0.17878588	         -0.00873738	          0.00000000	         -0.00171311	          0.00000000	          0.00000000	          0.00000000	          0.00000000	         -0.00058738	          0.00000000	
          2.41500000	          0.00000000	          0.00000000	          0.00000000	         -0.00000000	          0.00000000	         -0.00000000	         -0.51036407	         -1.60180734	         -0.12196894	         -0.00770113	          0.00000000	         -0.00151652	          0.00000000	          0.00000000	          0.00000000	          0.00000000	         -0.00083375	          0.00000000	
          2.42000000	         -0.00000000	          0.00000000	          0.00000000	         -0.00000000	          0.00000000	         -0.00000000	         -0.32511738	         -0.99436854	         -0.07588707	         -0.00642754	          0.00000000	         -0.00127052	          0.00000000	          0.00000000	          0.00000000	          0.00000000	         -0.00092580	          0.00000000	
          2.42500000	         -0.00000000	         -0.00000000	          0.00000000	         -0.00000000	          0.00000000	         -0.00000000	         -0.18060941	         -0.52618727	         -0.04033390	         -0.00510247	          0.00000000	         -0.00101228	          0.00000000	          0.00000000	          0.00000000	          0.00000000	         -0.00091161	          0.00000000	
          2.43000000	         -0.00000000	         -0.00000000	          0.00000000	         -0.00000000	          0.00000000	         -0.00000000	         -0.07365523	         -0.18433664	         -0.01434443	         -0.00384918	          0.00000000	         -0.00076661	          0.00000000	          0.00000000	          0.00000000	          0.00000000	         -0.00083041	          0.00000000	
          2.43500000	         -0.00000000	         -0.00000000	          0.00000000	         -0.00000000	          0.00000000	         -0.00000000	          0.00075766	          0.04946434	          0.00345659	         -0.00274105	          0.00000000	         -0.00054844	          0.00000000	          0.00000000	          0.00000000	          0.00000000	         -0.00071267	          0.00000000	
